<svg id="Capa_1" data-name="Capa 1" xmlns="http://www.w3.org/2000/svg" viewBox="0 0 406 121"><defs><style>.cls-1{fill:#d05559;}</style></defs><path class="cls-1" d="M34.22,34.61l10.8,35c.6,2,.83,2.92,1.13,4.2.37-1.28.52-2.18,1.2-4.2l11.32-35H52.82V28.84H71.87v5.77H65.79l-16,47.18H42.4L27,34.61H21V28.84H40.07v5.77Z"/><path class="cls-1" d="M86.27,82c-9,0-17-5-17-16.8s7.73-17.1,17-17.1,17,5.33,17,17.1S95.42,82,86.27,82Zm0-5.62c5.4,0,9.83-3.53,9.83-11.18s-4.43-11.47-9.83-11.47-9.75,3.67-9.75,11.47S80.87,76.39,86.27,76.39Z"/><path class="cls-1" d="M110.57,48.94h27.67v5.77l-20.39,21h15.6V70.76h5.69V81.33H109.67V75.71l20.18-21H116.2v4.5h-5.63Z"/><path class="cls-1" d="M162.39,100.08V94.76h5.4V54.26h-5.4V48.94h12.38l-.3,3.45c-.08,1-.08,1.87-.08,2.62,2.18-3.75,5.48-6.9,11.1-6.9,9.08,0,14.7,5.4,14.7,16.2,0,10.5-5.1,17.7-15,17.7a17.64,17.64,0,0,1-10.57-3.37V94.76h6.67v5.32Zm30.15-35.54c0-6.38-2.85-10.28-8.77-10.28-6.23,0-9.15,5.33-9.15,12.83v5.32a13.1,13.1,0,0,0,9.07,3.83C189.92,76.24,192.54,71,192.54,64.54Z"/><path class="cls-1" d="M206.42,81.33V76h5.4V54.26h-5.25v-5.4h12.15l-.53,6.83h.08c1-3.83,3.6-7.58,8.7-7.58,4.05,0,6.75,2,7.8,5.48l-6.08,4.2c-.3-1.5-1.05-3.53-3.82-3.53-4,0-6.38,3.83-6.38,13.28V76h5.4v5.32Z"/><path class="cls-1" d="M254.42,82c-9,0-16.95-5-16.95-16.8s7.72-17.1,16.95-17.1,17,5.33,17,17.1S263.57,82,254.42,82Zm0-5.62c5.4,0,9.82-3.53,9.82-11.18s-4.42-11.47-9.82-11.47-9.75,3.67-9.75,11.47S249,76.39,254.42,76.39Z"/><path class="cls-1" d="M276.92,100.08V94.76h5.4V54.26h-5.4V48.94h12.37l-.3,3.45c-.07,1-.07,1.87-.07,2.62,2.17-3.75,5.47-6.9,11.1-6.9,9.07,0,14.7,5.4,14.7,16.2,0,10.5-5.1,17.7-15,17.7a17.7,17.7,0,0,1-10.58-3.37V94.76h6.68v5.32Zm30.15-35.54c0-6.38-2.85-10.28-8.78-10.28-6.22,0-9.15,5.33-9.15,12.83v5.32a13.12,13.12,0,0,0,9.08,3.83C304.44,76.24,307.07,71,307.07,64.54Z"/><path class="cls-1" d="M331.59,73.61c0,2,.68,2.78,1.88,2.78a3.55,3.55,0,0,0,2.55-1l1.35,4.5c-1.28,1.28-3.45,1.8-5.63,1.8-4.95,0-6.9-2.7-6.9-7.5V54.26H321V48.94h10.57Zm-3.22-40.8a4.1,4.1,0,0,1,4.35,4.2,4.43,4.43,0,0,1-8.85,0A4.22,4.22,0,0,1,328.37,32.81Z"/><path class="cls-1" d="M376.44,79.83a7.52,7.52,0,0,1-5.4,1.88c-3.6,0-5.63-1.5-6.38-4.2-1.65,2.32-5.39,4.35-11.09,4.35-6.68,0-11.48-2.7-11.48-9.15s4.73-9.6,13.43-9.6h8.77V59.89c0-5.33-3.6-6.6-7.73-6.6-4.35,0-7.19,1.65-8.1,5l-5.24-3c2.47-4.8,6.37-7.2,13.65-7.2,7.05,0,14.25,2.1,14.25,12.08V73.91c0,1.28.14,2.48,1.79,2.48a2.93,2.93,0,0,0,2.18-.9Zm-12.15-9.37V67.69h-8.85c-4.73,0-6.52,2-6.52,4.65s1.95,4.42,6.14,4.42C360.77,76.76,364.14,74.21,364.29,70.46Z"/></svg>